<?xml version="1.0" encoding="UTF-8"?>
<svg id="Layer_1" data-name="Layer 1" xmlns="http://www.w3.org/2000/svg" viewBox="0 0 100 81.92">
  <defs>
    <style>
      .cls-1 {
        fill: #faf4ed;
        stroke-width: 0px;
      }
    </style>
  </defs>
  <g id="c">
    <path class="cls-1" d="m100,80.5c0,.79-.55,1.42-1.23,1.42h-40.01c-1.96,0-3.84-.9-5.22-2.5l-22.26-25.73c-1.38-1.6-3.26-2.5-5.22-2.5H1.23c-.68,0-1.23-.64-1.23-1.42v-17.62c0-.79.55-1.42,1.23-1.42h24.83c1.96,0,3.84-.9,5.22-2.5L53.53,2.5c1.38-1.6,3.26-2.5,5.22-2.5h40.01c.68,0,1.23.64,1.23,1.42v17.62c0,.79-.55,1.42-1.23,1.42h-31.17c-1.96,0-3.84.9-5.22,2.5l-10.34,11.96c-2.89,3.33-2.89,8.74,0,12.08l10.34,11.96c1.39,1.6,3.26,2.5,5.22,2.5h31.17c.68,0,1.23.64,1.23,1.42v17.62h.01Z"/>
  </g>
</svg>